<?xml version="1.0" standalone="no"?>
<!DOCTYPE svg PUBLIC "-//W3C//DTD SVG 1.0//EN" "http://www.w3.org/TR/2001/REC-SVG-20010904/DTD/svg10.dtd">
<svg xmlns="http://www.w3.org/2000/svg" xmlns:xlink="http://www.w3.org/1999/xlink" id="body_1" width="45" height="45">

<g transform="matrix(0.087890625 0 0 0.087890625 0 0)">
	<g transform="matrix(1 0 0 1 0 0)">
	</g>
    <path transform="matrix(1 0 0 1 0 0)"  d="M443.6 387.1L312.4 255.4L443.9 125.399994C 449.3 119.99999 449.3 111.2 443.9 105.799995L443.9 105.799995L406.5 68.2C 403.9 65.6 400.4 64.2 396.7 64.2C 393 64.2 389.5 65.7 386.90002 68.2L386.90002 68.2L256 197.8L124.9 68.3C 122.3 65.700005 118.8 64.3 115.1 64.3C 111.4 64.3 107.9 65.8 105.299995 68.3L105.299995 68.3L68 105.9C 62.6 111.3 62.6 120.1 68 125.5L68 125.5L199.5 255.5L68.4 387.1C 65.8 389.7 64.3 393.2 64.3 396.9C 64.3 400.6 65.700005 404.1 68.4 406.69998L68.4 406.69998L105.8 444.3C 108.5 447 112 448.4 115.600006 448.4C 119.100006 448.4 122.700005 447.1 125.40001 444.3L125.40001 444.3L256 313.1L386.7 444.2C 389.40002 446.90002 392.90002 448.30002 396.5 448.30002C 400 448.30002 403.6 447.00003 406.3 444.2L406.3 444.2L443.69998 406.6C 446.3 404 447.8 400.5 447.8 396.80002C 447.7 393.2 446.2 389.7 443.6 387.1z" stroke="none" fill="#000000" fill-rule="nonzero" />
</g>
</svg>